<svg width="24" height="24" viewBox="0 0 24 24" fill="none" xmlns="http://www.w3.org/2000/svg">
<g id="Boshlanish - icon">
<path id="Vector" d="M5.96888 13.7989C6.15168 13.8731 6.6789 14.0869 6.94632 14.216C7.46744 14.4676 8.16789 14.8551 8.6563 15.3435C9.14471 15.832 9.5322 16.5324 9.78384 17.0535C9.91228 17.3195 10.1254 17.8451 10.2007 18.0307L10.2046 18.0404C10.3022 18.3134 10.2337 18.6182 10.0287 18.8232C9.25429 19.5976 7.1366 20.8237 4.52199 19.9522C4.29804 19.8775 4.1223 19.7018 4.04765 19.4779C3.17611 16.8632 4.40228 14.7456 5.17667 13.9712C5.38167 13.7662 5.68646 13.6977 5.95946 13.7953L5.96218 13.7962L5.96888 13.7989Z" fill="#39CC46"/>
<path id="Vector_2" opacity="0.5" d="M5.83741 11.4418C11.2601 1.33518 18.2241 0.951769 21.2969 2.32408C21.4656 2.39942 21.6005 2.53437 21.6759 2.70305C23.0482 5.77582 22.6648 12.7399 12.5582 18.1625C12.3459 18.2764 12.0919 18.2814 11.8753 18.176C11.6587 18.0705 11.5059 17.8675 11.4647 17.6302C11.39 17.201 10.8981 15.8018 9.5481 14.4518C8.19816 13.1019 6.79896 12.61 6.36978 12.5353C6.13246 12.494 5.9294 12.3413 5.82396 12.1247C5.71852 11.9081 5.72352 11.6541 5.83741 11.4418Z" fill="#39CC46"/>
<path id="Vector_3" d="M18.4983 8.00146C18.4983 6.62075 17.379 5.50146 15.9983 5.50146C14.6176 5.50146 13.4983 6.62075 13.4983 8.00146C13.4983 9.38218 14.6176 10.5015 15.9983 10.5015C17.379 10.5015 18.4983 9.38218 18.4983 8.00146Z" fill="#39CC46"/>
<path id="Vector_4" d="M14.2029 18.6736C14.4448 18.9202 14.6179 19.1895 14.7514 19.4733C15.0253 20.0557 15.1693 20.8714 15.3037 21.6327C15.3483 21.884 15.5177 22.0953 15.7532 22.1937C15.9887 22.292 16.258 22.2638 16.4681 22.1189L16.4824 22.1075C16.6219 21.9969 16.9937 21.7018 17.1841 21.5212C17.5762 21.1492 18.0768 20.5992 18.4867 19.8982C18.8976 19.1956 19.2281 18.3225 19.2474 17.3175C19.2601 16.6567 19.1376 15.962 18.8394 15.2456C17.5996 16.4251 16.0702 17.5807 14.2029 18.6736Z" fill="#39CC46"/>
<path id="Vector_5" d="M8.75441 5.16039C8.03796 4.8621 7.34318 4.73966 6.68237 4.75235C5.67741 4.77166 4.80428 5.10213 4.10165 5.51305C3.40071 5.92298 2.85072 6.42355 2.47871 6.81564C2.29144 7.01302 2.0259 7.32162 1.88097 7.53168C1.73604 7.74174 1.70787 8.01107 1.8062 8.24657C1.90453 8.48207 2.11586 8.65141 2.36712 8.69604C3.12843 8.83042 3.94418 8.97447 4.52653 9.24832C4.81041 9.38181 5.07971 9.55498 5.32641 9.79694C6.4193 7.92963 7.57491 6.40024 8.75441 5.16039Z" fill="#39CC46"/>
</g>
</svg>
