<svg width="50" height="50" viewBox="0 0 50 50" fill="none" xmlns="http://www.w3.org/2000/svg">
<g id="Icon">
<path id="Vector" opacity="0.4" d="M42.7082 18.2292C43.5711 18.2292 44.2707 18.9288 44.2707 19.7917V34.0759C44.4459 34.4707 44.6745 34.8982 44.9526 35.419C45.137 35.764 45.3432 36.1499 45.5705 36.5945C46.1703 37.7684 46.8182 39.1865 47.2047 40.8128C47.4618 41.8947 47.6159 43.3259 46.5968 44.348C46.1195 44.8268 45.5309 45.0515 45.0126 45.1665C44.4959 45.2811 43.9291 45.3126 43.3655 45.3126H42.0511C41.4874 45.3126 40.9205 45.2811 40.4038 45.1665C39.8855 45.0515 39.297 44.8268 38.8197 44.348C37.8005 43.3259 37.9549 41.8947 38.2118 40.8128C38.5982 39.1865 39.2461 37.7684 39.8461 36.5945C40.0732 36.1501 40.2793 35.764 40.4636 35.4192C40.742 34.8986 40.9705 34.4707 41.1457 34.0759V19.7917C41.1457 18.9288 41.8453 18.2292 42.7082 18.2292Z" fill="#39CC46"/>
<path id="Vector_2" opacity="0.4" d="M31.4884 30.2677C30.3332 30.6773 29.207 31.034 28.1872 31.2938C27.249 31.5327 26.0953 31.7717 25.002 31.7717C23.9086 31.7717 22.7549 31.5327 21.8167 31.2938C20.7969 31.034 19.6708 30.6773 18.5156 30.2677C16.6975 29.6229 14.6819 28.8019 12.6962 27.9033C11.9801 27.5792 11.1648 28.1196 11.199 28.9048L11.4523 34.7146C11.4651 35.0075 11.4993 35.39 11.6217 35.7944C11.9077 36.7385 12.4646 37.6944 13.3982 38.3635C14.7937 39.3633 16.6455 40.0473 18.6133 40.4865C20.6013 40.9302 22.8111 41.1467 25.002 41.1467C27.1928 41.1467 29.4028 40.9302 31.3907 40.4865C33.3584 40.0473 35.2103 39.3633 36.6057 38.3635C37.5395 37.6944 38.0963 36.7385 38.3822 35.7944C38.5047 35.39 38.5388 35.0075 38.5517 34.7146L38.8049 28.9048C38.8392 28.1196 38.0238 27.5792 37.3078 27.9033C35.3222 28.8019 33.3065 29.6229 31.4884 30.2677Z" fill="#39CC46"/>
<path id="Vector_3" d="M22.5863 5.06881C23.4582 4.84669 24.3065 4.6875 25.0001 4.6875C25.6936 4.6875 26.542 4.84669 27.4138 5.06881C28.3134 5.29798 29.3442 5.6226 30.442 6.01185C32.6386 6.79079 35.1703 7.85279 37.5703 9.00044C39.9634 10.1448 42.2728 11.3968 44.0057 12.5637C44.8665 13.1433 45.6382 13.737 46.2124 14.3192C46.4997 14.6105 46.7745 14.9356 46.9853 15.2897C47.1901 15.6337 47.3959 16.1077 47.3959 16.6667C47.3959 17.2257 47.1901 17.6996 46.9853 18.0436C46.7745 18.3978 46.4997 18.7229 46.2124 19.0141C45.6382 19.5963 44.8665 20.1901 44.0057 20.7696C42.2728 21.9365 39.9634 23.1885 37.5703 24.3329C35.1703 25.4806 32.6386 26.5425 30.442 27.3215C29.3442 27.7108 28.3134 28.0354 27.4138 28.2646C26.542 28.4867 25.6936 28.6458 25.0001 28.6458C24.3065 28.6458 23.4582 28.4867 22.5863 28.2646C21.6868 28.0354 20.6559 27.7108 19.5582 27.3215C17.3615 26.5425 14.8298 25.4806 12.4298 24.3329C10.0368 23.1885 7.72735 21.9365 5.99442 20.7696C5.13369 20.1901 4.36204 19.5963 3.78775 19.0141C3.50041 18.7229 3.22562 18.3978 3.01479 18.0436C2.81 17.6996 2.60425 17.2257 2.60425 16.6667C2.60425 16.1077 2.81 15.6337 3.01479 15.2897C3.22562 14.9356 3.50041 14.6105 3.78775 14.3192C4.36204 13.737 5.13369 13.1433 5.99442 12.5637C7.72735 11.3968 10.0368 10.1448 12.4298 9.00044C14.8298 7.85279 17.3615 6.79079 19.5582 6.01185C20.6559 5.6226 21.6868 5.29798 22.5863 5.06881Z" fill="#39CC46"/>
</g>
</svg>
