<svg width="50" height="50" viewBox="0 0 50 50" fill="none" xmlns="http://www.w3.org/2000/svg">
<g id="Icon">
<path id="Vector" opacity="0.4" d="M22.7392 3.12058C23.5065 2.83108 24.261 2.60425 25 2.60425C25.739 2.60425 26.4935 2.83108 27.2608 3.12058C28.0377 3.41358 29.0079 3.84425 30.2177 4.38133C31.996 5.17077 34.3433 6.07679 36.8608 6.79244C38.6979 7.31466 40.1835 7.73692 41.3087 8.17321C42.4396 8.61171 43.4648 9.15562 44.1548 10.0693C44.8233 10.9542 45.0804 11.9881 45.1985 13.103C45.3125 14.1792 45.3125 15.5295 45.3125 17.1643V23.2986C45.3125 29.6651 42.4385 34.7134 38.9652 38.4763C35.5025 42.2274 31.3775 44.779 28.6585 46.214L28.5273 46.2834C27.3694 46.8955 26.4227 47.3959 25 47.3959C23.5773 47.3959 22.6306 46.8955 21.4727 46.2834L21.3415 46.214C18.6226 44.779 14.4974 42.2274 11.0348 38.4763C7.56138 34.7134 4.6875 29.6651 4.6875 23.2986V17.1644C4.68746 15.5295 4.68744 14.1792 4.80144 13.103C4.91954 11.9881 5.17669 10.9542 5.84511 10.0693C6.53529 9.15562 7.5605 8.61171 8.69131 8.17321C9.8165 7.73689 11.3018 7.31469 13.1391 6.79246C15.6566 6.07679 18.0038 5.17079 19.7821 4.38137C20.9921 3.84427 21.9623 3.41358 22.7392 3.12058Z" fill="#39CC46"/>
<g id="Vector_2">
<path d="M28.1144 27.5285C27.5599 27.7251 27.0193 27.8963 26.5298 28.021C26.0795 28.1357 25.5257 28.2504 25.0009 28.2504C24.4761 28.2504 23.9223 28.1357 23.472 28.021C22.9825 27.8963 22.4419 27.7251 21.8875 27.5285C21.0148 27.219 20.0473 26.8249 19.0941 26.3936C18.7504 26.238 18.3591 26.4974 18.3755 26.8743L18.4971 29.663C18.5032 29.8036 18.5196 29.9872 18.5784 30.1813C18.7157 30.6345 18.983 31.0933 19.4311 31.4145C20.1009 31.8944 20.9898 32.2227 21.9343 32.4335C22.8886 32.6465 23.9493 32.7504 25.0009 32.7504C26.0525 32.7504 27.1133 32.6465 28.0675 32.4335C29.012 32.2227 29.9009 31.8944 30.5707 31.4145C31.0189 31.0933 31.2862 30.6345 31.4234 30.1813C31.4822 29.9872 31.4986 29.8036 31.5048 29.663L31.6263 26.8743C31.6428 26.4974 31.2514 26.238 30.9077 26.3936C29.9546 26.8249 28.9871 27.219 28.1144 27.5285Z" fill="#39CC46"/>
<path d="M34.8739 30.5653C35.1618 31.1288 35.4728 31.8095 35.6583 32.5901C35.7817 33.1094 35.8557 33.7964 35.3665 34.287C35.1374 34.5168 34.8549 34.6247 34.6061 34.6799C34.3581 34.7349 34.086 34.75 33.8155 34.75H33.1846C32.914 34.75 32.6419 34.7349 32.3939 34.6799C32.1451 34.6247 31.8626 34.5168 31.6335 34.287C31.1443 33.7964 31.2184 33.1094 31.3417 32.5901C31.5272 31.8095 31.8382 31.1288 32.1262 30.5653C32.2352 30.352 32.3341 30.1667 32.4226 30.0012C32.5562 29.7513 32.6659 29.5459 32.75 29.3564V23.7994C32.2104 24.0982 31.6274 24.3959 31.0337 24.6798C29.8817 25.2307 28.6665 25.7404 27.6121 26.1143C27.0852 26.3012 26.5904 26.457 26.1586 26.567C25.7401 26.6736 25.3329 26.75 25 26.75C24.6671 26.75 24.2599 26.6736 23.8414 26.567C23.4096 26.457 22.9148 26.3012 22.3879 26.1143C21.3335 25.7404 20.1182 25.2307 18.9663 24.6798C17.8176 24.1305 16.7091 23.5295 15.8773 22.9694C15.4641 22.6912 15.0937 22.4062 14.8181 22.1268C14.6802 21.987 14.5483 21.8309 14.4471 21.6609C14.3488 21.4958 14.25 21.2683 14.25 21C14.25 20.7317 14.3488 20.5042 14.4471 20.3391C14.5483 20.1691 14.6802 20.013 14.8181 19.8732C15.0937 19.5938 15.4641 19.3088 15.8773 19.0306C16.7091 18.4705 17.8176 17.8695 18.9663 17.3202C20.1182 16.7693 21.3335 16.2596 22.3879 15.8857C22.9148 15.6988 23.4096 15.543 23.8414 15.433C24.2599 15.3264 24.6671 15.25 25 15.25C25.3329 15.25 25.7401 15.3264 26.1586 15.433C26.5904 15.543 27.0852 15.6988 27.6121 15.8857C28.6665 16.2596 29.8817 16.7693 31.0337 17.3202C32.1824 17.8695 33.2909 18.4705 34.1227 19.0306C34.5359 19.3088 34.9063 19.5938 35.1819 19.8732C35.3198 20.013 35.4517 20.1691 35.5529 20.3391C35.6512 20.5042 35.75 20.7317 35.75 21C35.75 21.2683 35.6512 21.4958 35.5529 21.6609C35.4517 21.8309 35.3198 21.987 35.1819 22.1268C34.9349 22.3772 34.6118 22.6321 34.25 22.8825V29.3564C34.3335 29.5446 34.4422 29.7482 34.5745 29.9958L34.5773 30.0011L34.5788 30.0038C34.6669 30.1687 34.7654 30.3531 34.8739 30.5653Z" fill="#39CC46"/>
</g>
</g>
</svg>
