<svg width="50" height="50" viewBox="0 0 50 50" fill="none" xmlns="http://www.w3.org/2000/svg">
<g id="knowledge - icon">
<path id="Vector" fill-rule="evenodd" clip-rule="evenodd" d="M12.7475 26.5625H43.2812C44.4031 26.5625 45.3125 27.4952 45.3125 28.6458C45.3125 29.7965 44.4031 30.7292 43.2812 30.7292H41.25C41.0185 30.7292 40.5606 30.8735 40.0675 31.6321C39.584 32.376 39.2188 33.524 39.2188 34.8958C39.2188 36.2677 39.584 37.4156 40.0675 38.1596C40.5606 38.9181 41.0185 39.0625 41.25 39.0625H43.2812C44.4031 39.0625 45.3125 39.9952 45.3125 41.1458C45.3125 42.2965 44.4031 43.2292 43.2812 43.2292H12.7475C11.8565 43.2292 11.0877 43.2292 10.4514 43.1848C9.78146 43.1377 9.11131 43.0346 8.44927 42.7533C6.95615 42.1192 5.76983 40.9023 5.15136 39.371C4.87713 38.6919 4.77658 38.0046 4.73088 37.3175C4.68746 36.6648 4.68748 35.8762 4.6875 34.9625V34.8292C4.68748 33.9154 4.68746 33.1269 4.73088 32.4742C4.77658 31.7871 4.87713 31.0998 5.15136 30.4208C5.76983 28.8894 6.95615 27.6725 8.44927 27.0383C9.11131 26.7571 9.78146 26.654 10.4514 26.6071C11.0877 26.5625 11.8565 26.5625 12.7475 26.5625ZM35.951 39.0625C35.4335 37.8123 35.1562 36.3802 35.1562 34.8958C35.1562 33.4115 35.4335 31.9794 35.951 30.7292H12.8125C11.8383 30.7292 11.2093 30.7302 10.728 30.764C10.2648 30.7965 10.0885 30.8519 10.0039 30.8877C9.50621 31.0992 9.11077 31.5048 8.90463 32.0152C8.86961 32.1019 8.81554 32.2829 8.78394 32.7579C8.7511 33.2515 8.75 33.8967 8.75 34.8958C8.75 35.895 8.7511 36.5402 8.78394 37.0337C8.81554 37.5087 8.86961 37.6898 8.90463 37.7765C9.11077 38.2869 9.50621 38.6925 10.0039 38.904C10.0885 38.9398 10.2648 38.9952 10.728 39.0277C11.2093 39.0615 11.8383 39.0625 12.8125 39.0625H35.951Z" fill="#39CC46"/>
<path id="Vector_2" opacity="0.4" d="M34.2722 6.77088H36.5613C37.9463 6.77081 39.1399 6.77075 40.0957 6.89923C41.1199 7.03694 42.1018 7.34748 42.898 8.14384C43.6943 8.94017 44.0049 9.92198 44.1426 10.9462C44.2711 11.9019 44.2709 13.0954 44.2709 14.4805V14.6863C44.2709 16.0714 44.2711 17.2648 44.1426 18.2206C44.0049 19.2448 43.6943 20.2266 42.898 21.023C42.1018 21.8192 41.1199 22.1298 40.0957 22.2675C39.1399 22.3961 37.9463 22.3959 36.5613 22.3959H34.2722C32.8872 22.3959 31.6936 22.3961 30.738 22.2675C29.7136 22.1298 28.732 21.8192 27.9355 21.023C27.1393 20.2266 26.8286 19.2448 26.6909 18.2206C26.5624 17.2649 26.5626 16.0715 26.5626 14.6864V14.4805C26.5626 13.7675 26.5626 13.1052 26.5801 12.5H26.5626C26.5626 11.6371 25.863 10.9375 25.0001 10.9375C24.1372 10.9375 23.4376 11.6371 23.4376 12.5H23.4201C23.4376 13.1052 23.4376 13.7675 23.4376 14.4805V14.6863C23.4376 16.0714 23.4378 17.2648 23.3093 18.2206C23.1715 19.2448 22.8609 20.2266 22.0647 21.023C21.2684 21.8192 20.2865 22.1298 19.2623 22.2675C18.3065 22.3961 17.1131 22.3959 15.728 22.3959H13.4389C12.0538 22.3959 10.8603 22.3961 9.90458 22.2675C8.88036 22.1298 7.89854 21.8192 7.10221 21.023C6.30585 20.2266 5.99531 19.2448 5.8576 18.2206C5.72913 17.2649 5.72919 16.0715 5.72925 14.6865V14.4805C5.72919 13.0955 5.72913 11.9019 5.8576 10.9462C5.99531 9.92198 6.30585 8.94017 7.10221 8.14384C7.89854 7.34748 8.88036 7.03694 9.90458 6.89923C10.8603 6.77075 12.0536 6.77081 13.4387 6.77088H15.728C17.113 6.77081 18.3066 6.77075 19.2623 6.89923C20.2865 7.03694 21.2684 7.34748 22.0647 8.14384C22.203 8.28209 22.3265 8.42594 22.4372 8.57463C23.1736 8.09273 24.0543 7.81254 25.0001 7.81254C25.9459 7.81254 26.8265 8.09273 27.563 8.57463C27.6736 8.42594 27.7974 8.28209 27.9355 8.14384C28.732 7.34748 29.7136 7.03694 30.738 6.89923C31.6936 6.77075 32.8872 6.77081 34.2722 6.77088Z" fill="#39CC46"/>
<path id="Vector_3" fill-rule="evenodd" clip-rule="evenodd" d="M5.94656 10.4166H4.16659C3.016 10.4166 2.08325 11.3494 2.08325 12.5C2.08325 13.6505 3.016 14.5833 4.16659 14.5833H5.72909V14.4804C5.72902 13.0954 5.72896 11.9018 5.85744 10.9461C5.88138 10.7681 5.91054 10.5914 5.94656 10.4166ZM44.2708 14.5833H45.8333C46.9839 14.5833 47.9166 13.6505 47.9166 12.5C47.9166 11.3494 46.9839 10.4166 45.8333 10.4166H44.0533C44.0893 10.5914 44.1185 10.7681 44.1424 10.9461C44.271 11.9019 44.2708 13.0953 44.2708 14.4805V14.5833Z" fill="#39CC46"/>
</g>
</svg>
