<svg width="149" height="40" viewBox="0 0 149 40" fill="none" xmlns="http://www.w3.org/2000/svg">
<g id="LOGOTYPE 1">
<path id="Vector" d="M7.58887 4.70992H30.7398C35.9374 4.70992 40.151 8.90967 40.151 14.0903V39.0423H16.9998C11.8023 39.0423 7.58887 34.8424 7.58887 29.6618V4.70992Z" fill="#39CC46"/>
<path id="Vector_2" fill-rule="evenodd" clip-rule="evenodd" d="M17.1692 17.0402V12.7708C17.1692 12.0386 17.7647 11.4451 18.4993 11.4451H24.5827C27.6505 11.4451 30.1374 13.924 30.1374 16.982C30.1374 16.982 27.9449 16.2167 26.4627 16.4637C24.7686 16.6382 23.6693 17.5478 23.6693 17.5478C23.6693 17.5478 22.5117 16.4637 20.345 16.4637C18.9981 16.3386 17.1692 17.0402 17.1692 17.0402ZM17.9817 12.2119V15.9772L18.2262 15.9054C19.1206 15.643 20.0633 15.5879 20.9821 15.7445V14.3854H24.6729C26.1121 14.3854 26.4627 15.7445 26.4627 15.7445L26.4805 15.7415C27.3916 15.5874 28.327 15.6686 29.1976 15.9772C29.1976 15.9772 28.4329 12.2119 24.0623 12.2119H17.9817ZM21.8107 15.8397V15.1099H24.4233C25.3368 15.1099 25.6872 15.8397 25.6872 15.8397L25.6104 15.8483C24.9144 15.926 24.2483 16.1717 23.6693 16.5642L23.545 16.4833C23.0218 16.1431 22.4295 15.9232 21.8107 15.8397Z" fill="#202024"/>
<path id="Vector_3" fill-rule="evenodd" clip-rule="evenodd" d="M17.1692 18.2036V26.904C17.1692 27.7328 17.8433 28.4049 18.6749 28.4049H20.3898C21.2214 28.4049 21.8956 27.7328 21.8956 26.904V23.6135H24.7098C27.7074 23.6135 30.1374 21.1916 30.1374 18.2036C30.1374 18.2036 27.8986 17.6297 26.4627 17.7858C25.0233 17.7858 23.6693 18.5949 23.6693 18.5949C23.6693 18.5949 22.5966 17.7858 20.345 17.7858C19.0954 17.7261 17.1692 18.2036 17.1692 18.2036ZM18.3581 27.6856C18.1502 27.6856 17.9817 27.5177 17.9817 27.3104V18.8488L18.2324 18.7694C19.121 18.4881 20.065 18.4282 20.9821 18.5949V20.7155H24.6729C26.898 20.6415 26.4627 18.5949 26.4627 18.5949C27.3779 18.4298 28.3291 18.5167 29.1976 18.8488C29.1976 18.8488 29.0276 22.8838 24.2534 22.8838H20.9821V27.3104C20.9821 27.5177 20.8137 27.6856 20.6057 27.6856H18.3581ZM21.8107 19.9593V18.7324L22.032 18.7712C22.6547 18.88 23.2272 19.181 23.6693 19.6314C24.0889 19.1827 24.6482 18.8888 25.2566 18.7972L25.6872 18.7324C25.6872 18.7324 25.8784 19.9012 24.6729 19.9593H21.8107Z" fill="#202024"/>
<path id="Vector_4" fill-rule="evenodd" clip-rule="evenodd" d="M3.82446 0.957745V26.4725C3.82446 31.8605 8.20645 36.2282 13.6119 36.2282H37.3275V10.7134C37.3275 5.3255 32.9457 0.957745 27.5401 0.957745H3.82446ZM13.6119 35.2901C8.72618 35.2901 4.76556 31.3422 4.76556 26.4725V1.89579H27.5401C32.4257 1.89579 36.3865 5.84355 36.3865 10.7134V35.2901H13.6119Z" fill="#202024"/>
<path id="Vector_5" d="M57.2642 11.1261C59.5183 11.1261 61.1632 11.5747 62.1986 12.4718C63.2421 13.3689 63.7638 14.6432 63.7638 16.2945C63.7638 17.0408 63.6443 17.7513 63.4053 18.4262C63.1664 19.0931 62.776 19.6845 62.2344 20.2006C61.7009 20.7087 60.9959 21.1136 60.1197 21.4152C59.2437 21.7091 58.1683 21.856 56.8938 21.856H54.8988V28.5367H52.4495V11.1261H57.2642ZM57.0732 13.1744H54.8988V19.7957H56.631C57.6427 19.7957 58.4908 19.6845 59.1758 19.4622C59.8608 19.2319 60.3785 18.8669 60.7291 18.3666C61.0796 17.8665 61.2548 17.2075 61.2548 16.3898C61.2548 15.3101 60.9162 14.5042 60.2391 13.9723C59.5622 13.4404 58.5069 13.1744 57.0732 13.1744Z" fill="#202024"/>
<path id="Vector_6" d="M71.9063 11.1261C73.3797 11.1261 74.5944 11.3087 75.5502 11.6739C76.514 12.0312 77.2308 12.579 77.7007 13.3173C78.1707 14.0477 78.4056 14.9766 78.4056 16.104C78.4056 16.9932 78.2423 17.7434 77.9158 18.3547C77.5893 18.966 77.159 19.4663 76.6255 19.8552C76.0997 20.2443 75.5343 20.5499 74.9288 20.7722L79.8154 28.5367H77.0078L72.7544 21.4152H69.5406V28.5367H67.0913V11.1261H71.9063ZM71.7508 13.1982H69.5406V19.379H71.9181C73.296 19.379 74.3037 19.1129 74.9409 18.581C75.578 18.0411 75.8966 17.2472 75.8966 16.1992C75.8966 15.1116 75.5581 14.3415 74.8812 13.889C74.2041 13.4285 73.1608 13.1982 71.7508 13.1982Z" fill="#202024"/>
<path id="Vector_7" d="M92.0201 28.5367H82.2112V11.1261H92.0201V13.2221H84.6605V18.4024H91.5781V20.4746H84.6605V26.4289H92.0201V28.5367Z" fill="#202024"/>
<path id="Vector_8" d="M100.402 11.1261C102.656 11.1261 104.3 11.5747 105.336 12.4718C106.379 13.3689 106.901 14.6432 106.901 16.2945C106.901 17.0408 106.782 17.7513 106.542 18.4262C106.304 19.0931 105.913 19.6845 105.372 20.2006C104.838 20.7087 104.133 21.1136 103.257 21.4152C102.381 21.7091 101.306 21.856 100.031 21.856H98.036V28.5367H95.5867V11.1261H100.402ZM100.21 13.1744H98.036V19.7957H99.7682C100.78 19.7957 101.628 19.6845 102.313 19.4622C102.998 19.2319 103.516 18.8669 103.866 18.3666C104.217 17.8665 104.392 17.2075 104.392 16.3898C104.392 15.3101 104.053 14.5042 103.377 13.9723C102.699 13.4404 101.644 13.1744 100.21 13.1744Z" fill="#202024"/>
<path id="Vector_9" d="M109.583 27.1792C109.583 26.5758 109.735 26.151 110.038 25.9048C110.348 25.6509 110.723 25.5238 111.161 25.5238C111.606 25.5238 111.985 25.6509 112.296 25.9048C112.606 26.151 112.761 26.5758 112.761 27.1792C112.761 27.7666 112.606 28.1953 112.296 28.4652C111.985 28.7352 111.606 28.87 111.161 28.87C110.723 28.87 110.348 28.7352 110.038 28.4652C109.735 28.1953 109.583 27.7666 109.583 27.1792Z" fill="#202024"/>
<path id="Vector_10" d="M130.02 11.1261V22.3917C130.02 23.6145 129.765 24.7061 129.255 25.6667C128.753 26.6274 127.993 27.3855 126.973 27.9412C125.954 28.4971 124.672 28.7748 123.126 28.7748C120.936 28.7748 119.263 28.1914 118.108 27.0242C116.961 25.8492 116.388 24.2892 116.388 22.3442V11.1261H118.849V22.2488C118.849 23.7176 119.216 24.8252 119.948 25.5715C120.689 26.3177 121.788 26.6909 123.246 26.6909C124.249 26.6909 125.07 26.5123 125.707 26.1549C126.344 25.7897 126.814 25.2777 127.117 24.6188C127.427 23.9519 127.583 23.1619 127.583 22.2488V11.1261H130.02Z" fill="#202024"/>
<path id="Vector_11" d="M145.176 28.5367H132.834V26.7979L141.974 13.2459H133.132V11.1261H144.937V12.8648L135.785 26.4169H145.176V28.5367Z" fill="#202024"/>
</g>
</svg>
