<svg width="50" height="50" viewBox="0 0 50 50" fill="none" xmlns="http://www.w3.org/2000/svg">
<g id="mentor-help - icon">
<path id="Vector" opacity="0.4" d="M31.6095 35.6619C35.2076 33.2517 39.7922 33.2517 43.3904 35.6619C44.0362 36.0702 45.507 37.0029 46.2795 37.8536C46.7697 38.3934 47.2864 39.1598 47.3808 40.1304C47.482 41.1723 47.0695 42.1294 46.3158 42.9373C45.176 44.159 43.6518 45.3125 41.5824 45.3125H33.4174C31.3481 45.3125 29.8239 44.159 28.6839 42.9373C27.9301 42.1294 27.5176 41.1723 27.6189 40.1304C27.7133 39.1598 28.2301 38.3934 28.7204 37.8536C29.4926 37.0029 30.9635 36.0702 31.6095 35.6619Z" fill="#39CC46"/>
<path id="Vector_2" d="M31.7708 26.0417C31.7708 22.8775 34.3358 20.3125 37.4999 20.3125C40.6641 20.3125 43.2291 22.8775 43.2291 26.0417C43.2291 29.2058 40.6641 31.7708 37.4999 31.7708C34.3358 31.7708 31.7708 29.2058 31.7708 26.0417Z" fill="#39CC46"/>
<path id="Vector_3" opacity="0.4" fill-rule="evenodd" clip-rule="evenodd" d="M18.75 6.77083C18.75 5.62025 19.6828 4.6875 20.8333 4.6875H37.5C38.6506 4.6875 39.5833 5.62025 39.5833 6.77083C39.5833 7.92142 38.6506 8.85417 37.5 8.85417H20.8333C19.6828 8.85417 18.75 7.92142 18.75 6.77083ZM18.75 13.0208C18.75 11.8703 19.6828 10.9375 20.8333 10.9375H31.25C32.4006 10.9375 33.3333 11.8703 33.3333 13.0208C33.3333 14.1714 32.4006 15.1042 31.25 15.1042H20.8333C19.6828 15.1042 18.75 14.1714 18.75 13.0208Z" fill="#39CC46"/>
<path id="Vector_4" opacity="0.4" d="M16.0557 31.6609C16.1461 30.9884 16.146 30.1618 16.1459 29.2601V22.3959H24.4793C25.6299 22.3959 26.5626 21.4632 26.5626 20.3126C26.5626 19.162 25.6299 18.2293 24.4793 18.2293H11.9793L11.9724 18.2293L8.24021 18.2293C7.3385 18.2292 6.51178 18.2291 5.83925 18.3195C5.09867 18.419 4.3159 18.6533 3.67211 19.2971C3.02832 19.9409 2.79405 20.7237 2.69448 21.4643C2.60407 22.1368 2.60415 22.9634 2.60426 23.8653V29.2601C2.60415 30.1618 2.60407 30.9884 2.69448 31.6609C2.79405 32.4015 3.02832 33.1843 3.67211 33.828C4.3159 34.472 5.09867 34.7061 5.83925 34.8057C6.51175 34.8961 7.33855 34.8961 8.24019 34.8959H10.5101C11.4118 34.8961 12.2385 34.8961 12.9109 34.8057C13.6515 34.7061 14.4343 34.472 15.0781 33.828C15.7219 33.1843 15.9562 32.4015 16.0557 31.6609Z" fill="#39CC46"/>
<path id="Vector_5" d="M3.64575 10.4167C3.64575 7.25254 6.21079 4.6875 9.37492 4.6875C12.539 4.6875 15.1041 7.25254 15.1041 10.4167C15.1041 13.5808 12.539 16.1458 9.37492 16.1458C6.21079 16.1458 3.64575 13.5808 3.64575 10.4167Z" fill="#39CC46"/>
</g>
</svg>
