<svg width="161" height="168" viewBox="0 0 161 168" fill="none" xmlns="http://www.w3.org/2000/svg">
<g id="Natija - icon" clip-path="url(#clip0_110_5)">
<path id="Vector" opacity="0.5" fill-rule="evenodd" clip-rule="evenodd" d="M32.9661 45.9108L33.3754 45.8011L40.0768 44.0055C43.7221 43.0287 47.4691 45.1921 48.4459 48.8374C49.4227 52.4828 47.2593 56.2297 43.614 57.2065L36.9126 59.0021C33.4688 59.9249 31.6668 60.4291 30.4916 60.9518C30.6153 61.295 30.8079 61.7586 31.1071 62.3973C31.5197 63.278 32.0372 64.289 32.7154 65.6111C37.2292 74.4106 43.723 81.3082 51.0118 85.6758C54.2489 87.6155 55.3007 91.8125 53.3608 95.0496C51.421 98.2873 47.2242 99.339 43.9869 97.3986C34.3629 91.6317 26.1552 82.7659 20.5552 71.8487L20.3635 71.4752C19.2085 69.2266 17.9523 66.7808 17.2742 64.4898C16.4173 61.5949 16.3054 58.4643 17.7992 55.1766C19.3847 51.6875 22.1002 49.7419 24.8436 48.5067C27.1553 47.4659 30.0685 46.6862 32.9661 45.9108ZM98.6605 77.8286C102.306 76.8518 106.053 79.0151 107.03 82.6605L117.641 122.263C118.618 125.909 116.455 129.656 112.809 130.633C109.164 131.609 105.417 129.446 104.44 125.801L93.8286 86.1977C92.8518 82.5522 95.0151 78.8054 98.6605 77.8286ZM142.723 30.6504C146.166 29.7278 147.979 29.2633 149.258 29.1284C149.323 29.4875 149.387 29.9853 149.448 30.6881C149.531 31.657 149.588 32.7913 149.662 34.2754C150.153 44.1528 147.978 53.3732 143.849 60.8001C142.016 64.0985 143.203 68.2591 146.502 70.0926C149.8 71.9267 153.961 70.739 155.794 67.4399C161.245 57.6336 163.921 45.8517 163.312 33.5971L163.291 33.178C163.167 30.6532 163.032 27.9067 162.473 25.5838C161.768 22.6482 160.3 19.8811 157.363 17.7807C154.245 15.5518 150.921 15.2246 147.927 15.5266C145.405 15.7811 142.492 16.5625 139.595 17.3397L139.185 17.4495L132.484 19.2451C128.838 20.2219 126.675 23.9689 127.652 27.6142C128.629 31.2596 132.376 33.4229 136.021 32.4461L142.723 30.6504Z" fill="#F5F6F9"/>
<path id="Vector_2" d="M109.708 119.083C96.5614 122.606 87.488 133.557 84.8216 146.391C82.975 155.28 90.9695 163.013 99.3619 160.765L139.509 150.007C147.901 147.759 150.959 137.064 144.914 130.289C136.188 120.508 122.854 115.561 109.708 119.083Z" fill="#F5F6F9"/>
<path id="Vector_3" d="M58.3388 19.6584C49.5535 22.002 42.7117 23.8272 38.2511 30.8125C36.1491 34.1044 35.1251 37.1619 35.0508 40.5854C34.9866 43.5439 35.665 46.5857 36.3387 49.6061L36.4211 49.9759C36.5853 50.7133 36.7659 51.4501 36.9631 52.1861C44.5026 80.3238 73.53 96.9439 101.756 89.3808C129.982 81.8178 146.81 52.9106 139.271 24.7729C139.074 24.0369 138.861 23.3085 138.635 22.5877L138.521 22.2265C137.595 19.2737 136.662 16.3002 135.126 13.7703C133.35 10.8426 130.935 8.70661 127.469 6.9068C120.113 3.08756 113.275 4.92788 104.495 7.29088L58.3388 19.6584Z" fill="#F5F6F9"/>
</g>
<defs>
<clipPath id="clip0_110_5">
<rect width="164" height="164" fill="white" transform="translate(0 26.4464) rotate(-15)"/>
</clipPath>
</defs>
</svg>
