<svg width="50" height="50" viewBox="0 0 50 50" fill="none" xmlns="http://www.w3.org/2000/svg">
<g id="Icon">
<path id="&#226;&#128;&#157;" d="M8.21423 10H21.6397V24.2991C21.7027 26.3551 21.3875 28.2866 20.6942 30.0935C20.0639 31.9003 19.15 33.4891 17.9524 34.8598C16.7548 36.2305 15.3051 37.3832 13.6033 38.3178C11.9645 39.19 10.1682 39.7508 8.21423 40V33.8318C10.6094 33.0218 12.2482 31.838 13.1306 30.2804C14.013 28.6604 14.4542 26.6978 14.4542 24.3925H8.21423V10ZM28.3524 10H41.7778V24.2991C41.8408 26.3551 41.5257 28.2866 40.8323 30.0935C40.202 31.9003 39.2881 33.4891 38.0905 34.8598C36.8929 36.2305 35.4433 37.3832 33.7414 38.3178C32.1027 39.19 30.3063 39.7508 28.3524 40V33.8318C30.7475 33.0218 32.3863 31.838 33.2687 30.2804C34.1511 28.6604 34.5923 26.6978 34.5923 24.3925H28.3524V10Z" fill="#202024"/>
</g>
</svg>
