<svg width="50" height="50" viewBox="0 0 50 50" fill="none" xmlns="http://www.w3.org/2000/svg">
<g id="Icon">
<path id="Vector" opacity="0.4" d="M10.4167 21.0938C10.4167 13.2143 16.9148 6.77091 25 6.77091C33.0852 6.77091 39.5834 13.2143 39.5834 21.0938C39.5834 21.3986 39.3942 21.6701 39.1181 21.7992C38.95 21.8778 38.7859 21.9603 38.6256 22.0407L38.4717 22.1178L38.3654 22.1701C37.7567 22.4678 36.5444 23.0607 36.0938 24.519C35.9348 25.0342 35.9361 25.5824 35.9373 26.0782L35.9375 26.2061V34.2107L35.9373 34.3386C35.9361 34.8345 35.9348 35.3826 36.0938 35.8978C36.5444 37.3561 37.7567 37.949 38.3654 38.2467L38.4717 38.299L38.6256 38.3761C39.209 38.669 39.8463 38.9888 40.5238 39.0488C41.2784 39.1155 42.0348 38.9378 42.6809 38.5413C43.2609 38.1853 43.6881 37.614 44.0784 37.0924L44.1813 36.9549C44.3204 36.7701 44.4959 36.5476 44.6871 36.3051C45.0434 35.8536 45.4544 35.3322 45.7875 34.8555C46.3417 34.0624 46.8988 33.1088 47.1752 32.0024C47.4694 30.8245 47.4694 29.5924 47.1752 28.4145C46.8092 26.9492 45.8396 25.6626 44.4596 23.8315L44.2615 23.5684C44.2386 23.5382 44.1965 23.4797 44.1436 23.4063C43.9579 23.149 43.865 23.0203 43.8161 22.8892C43.8044 22.858 43.7957 22.8313 43.7869 22.799C43.75 22.664 43.75 22.513 43.75 22.2105V21.0938C43.75 10.8515 35.3244 2.60425 25 2.60425C14.6757 2.60425 6.25002 10.8515 6.25002 21.0938V22.1815C6.25002 22.5249 6.25002 22.6965 6.20369 22.8465C6.19879 22.8624 6.19471 22.8747 6.18912 22.8903C6.13619 23.0382 6.02506 23.1865 5.80281 23.4832L5.73856 23.5688L5.54037 23.832C4.1605 25.6628 3.19081 26.9495 2.82487 28.4145C2.53062 29.5926 2.53062 30.8245 2.82487 32.0026C3.10121 33.1088 3.65831 34.0622 4.21248 34.8555C4.54554 35.3322 4.95648 35.853 5.31262 36.3047C5.50392 36.5472 5.6796 36.7699 5.81871 36.9547L5.88433 37.0424C6.43081 37.7736 7.51344 39.2222 9.47629 39.0486C10.1538 38.9886 10.791 38.6688 11.3744 38.3759L11.5282 38.2988L11.643 38.242C12.089 38.0211 12.5799 37.7782 12.9701 37.407C14.0661 36.3645 14.0638 35.0186 14.0626 34.2807L14.0625 34.2107V26.2063L14.0626 26.1363C14.0638 25.3984 14.0661 24.0524 12.9701 23.0101C12.5799 22.6388 12.089 22.3957 11.643 22.1751L11.5282 22.118L11.3744 22.0411C11.2143 21.9607 11.0501 21.8782 10.8822 21.7997C10.6059 21.6705 10.4167 21.3988 10.4167 21.0938Z" fill="#39CC46"/>
<path id="Vector_2" fill-rule="evenodd" clip-rule="evenodd" d="M17.9681 23.7624C18.0099 23.7697 18.0516 23.777 18.0933 23.7843C21.1579 24.3214 23.4806 25.2949 25 26.2585C26.5196 25.2949 28.8421 24.3214 31.9069 23.7843C31.9486 23.777 31.9902 23.7697 32.0319 23.7624C32.9427 23.6024 33.8556 23.4422 34.6473 23.4376C35.5954 23.4318 36.5517 23.6401 37.4334 24.3353C38.3757 25.0785 38.7644 26.0457 38.9261 27.002C39.0632 27.8116 39.0627 28.7924 39.0625 29.7895C39.0625 29.8337 39.0625 29.8776 39.0625 29.9218V38.0201C39.0627 38.9489 39.0627 39.813 38.979 40.5193C38.8881 41.2855 38.6717 42.163 38.0096 42.917C37.3261 43.6957 36.3919 44.0353 35.6204 44.2464C34.8446 44.4585 33.8454 44.6334 32.6977 44.8345L32.6044 44.851C30.5973 45.2024 29.0752 45.7553 28.0204 46.2791L27.9773 46.3005C27.4059 46.5843 26.9165 46.8272 26.5338 46.9966C26.3352 47.0845 26.119 47.1735 25.9023 47.2428C25.7065 47.3055 25.3813 47.3957 25 47.3957C24.6188 47.3957 24.2936 47.3055 24.0977 47.2428C23.8813 47.1735 23.6648 47.0845 23.4663 46.9966C23.0836 46.8272 22.5942 46.5843 22.0229 46.3005L21.9796 46.2791C20.9248 45.7553 19.4027 45.2024 17.3957 44.851L17.3024 44.8345C16.1547 44.6334 15.1554 44.4585 14.3797 44.2464C13.6083 44.0353 12.6741 43.6957 11.9904 42.917C11.3285 42.163 11.1119 41.2855 11.0211 40.5193C10.9374 39.813 10.9375 38.9489 10.9376 38.0199C10.9376 37.9859 10.9376 37.952 10.9376 37.9178V29.9218C10.9376 29.8776 10.9376 29.8337 10.9376 29.7895C10.9373 28.7924 10.937 27.8116 11.074 27.002C11.2358 26.046 11.6244 25.0785 12.5667 24.3353C13.4484 23.6401 14.4046 23.4318 15.3528 23.4376C16.1445 23.4422 17.0573 23.6024 17.9681 23.7624ZM22.9911 29.7237C22.0938 29.123 20.2702 28.2203 17.3957 27.7168C16.3075 27.5262 15.7378 27.433 15.3284 27.4305C15.1723 27.4295 15.1044 27.4445 15.0867 27.4491C15.0748 27.4835 15.0555 27.5501 15.0362 27.6643C14.9621 28.1026 14.9554 28.7391 14.9554 29.9218V37.9178C14.9554 38.9845 14.9587 39.6082 15.0114 40.0522C15.0225 40.1462 15.0343 40.2157 15.0447 40.266C15.1224 40.2974 15.2495 40.3426 15.4457 40.3964C16.016 40.5524 16.825 40.6962 18.0933 40.9185C20.0506 41.2614 21.6831 41.7774 22.9911 42.3435V29.7237ZM27.009 42.3435C28.3169 41.7774 29.9496 41.2614 31.9069 40.9185C33.1752 40.6962 33.984 40.5524 34.5544 40.3964C34.7506 40.3426 34.8777 40.2974 34.9554 40.266C34.9659 40.2157 34.9777 40.1462 34.9888 40.0522C35.0413 39.6082 35.0446 38.9845 35.0446 37.9178V29.9218C35.0446 28.7391 35.0381 28.1026 34.964 27.6643C34.9446 27.5501 34.9252 27.4835 34.9134 27.4491C34.8957 27.4445 34.8277 27.4295 34.6717 27.4305C34.2623 27.433 33.6925 27.5262 32.6044 27.7168C29.7298 28.2203 27.9063 29.123 27.009 29.7237V42.3435Z" fill="#39CC46"/>
</g>
</svg>
