<svg width="50" height="50" viewBox="0 0 50 50" fill="none" xmlns="http://www.w3.org/2000/svg">
<g id="Icon">
<path id="Vector" fill-rule="evenodd" clip-rule="evenodd" d="M36.5 25.3022C30.3155 25.3022 25.3021 30.3157 25.3021 36.5002C25.3021 42.6846 30.3155 47.6981 36.5 47.6981C42.6845 47.6981 47.6979 42.6846 47.6979 36.5002C47.6979 30.3157 42.6845 25.3022 36.5 25.3022ZM37.2812 31.2917C37.2812 30.8603 36.9315 30.5105 36.5 30.5105C36.0685 30.5105 35.7188 30.8603 35.7188 31.2917V31.7336C35.0778 31.8426 34.4897 32.0847 34.0125 32.4346C33.3471 32.9225 32.8542 33.6611 32.8542 34.5499C32.8542 35.3316 33.1348 36.0542 33.8518 36.5342C34.502 36.9696 35.4085 37.1315 36.5 37.1315C37.4981 37.1315 38.0916 37.2814 38.4189 37.4935C38.675 37.6596 38.8438 37.9105 38.8438 38.4507C38.8438 38.9047 38.6574 39.185 38.3093 39.3928C37.9137 39.6289 37.2925 39.77 36.5 39.77C35.771 39.77 35.1462 39.57 34.7261 39.2876C34.3011 39.002 34.1562 38.6913 34.1562 38.4507C34.1562 38.0192 33.8065 37.6695 33.375 37.6695C32.9435 37.6695 32.5938 38.0192 32.5938 38.4507C32.5938 39.3703 33.1484 40.1099 33.8545 40.5845C34.3759 40.9349 35.0194 41.1737 35.7188 41.2761V41.7084C35.7188 42.1399 36.0685 42.4897 36.5 42.4897C36.9315 42.4897 37.2812 42.1399 37.2812 41.7084V41.2924C37.9444 41.2214 38.5806 41.0505 39.1101 40.7345C39.893 40.2671 40.4062 39.4972 40.4062 38.4507C40.4062 37.4907 40.0542 36.6914 39.2686 36.1823C38.5543 35.7192 37.5852 35.569 36.5 35.569C35.5081 35.569 34.9824 35.4108 34.721 35.2359C34.5267 35.1058 34.4167 34.9281 34.4167 34.5499C34.4167 34.2785 34.565 33.9669 34.9364 33.6946C35.3073 33.4226 35.8576 33.2306 36.5 33.2306C37.1424 33.2306 37.6927 33.4226 38.0635 33.6946C38.435 33.9669 38.5833 34.2785 38.5833 34.5499C38.5833 34.9813 38.9331 35.3311 39.3646 35.3311C39.796 35.3311 40.1458 34.9813 40.1458 34.5499C40.1458 33.6611 39.6529 32.9225 38.9875 32.4346C38.5103 32.0847 37.9222 31.8426 37.2812 31.7336V31.2917Z" fill="#39CC46"/>
<path id="Vector_2" opacity="0.4" d="M28.0527 9.89575H19.8924C16.2588 9.89571 13.3697 9.89569 11.1063 10.2058C8.77027 10.5258 6.86954 11.2022 5.3719 12.7284C3.87825 14.2504 3.21987 16.1752 2.90767 18.5415C2.60412 20.842 2.60417 24.0116 2.60419 27.7193C2.60417 31.4272 2.60412 34.3662 2.90767 36.6666C3.21987 39.033 3.87825 40.9578 5.3719 42.4799C6.86954 44.006 8.77027 44.6824 11.1063 45.0024C13.3697 45.3124 16.2587 45.3124 19.8923 45.3124H25.5327C23.5713 42.8951 22.3959 39.8139 22.3959 36.4583C22.3959 28.6918 28.6919 22.3958 36.4584 22.3958C39.814 22.3958 42.8952 23.5712 45.3125 25.5326V22.9005L45.3121 22.8843C45.2188 18.3523 44.8481 15.0464 42.5734 12.7284C41.0756 11.2022 39.1748 10.5258 36.8388 10.2058C34.5754 9.89569 31.6865 9.89571 28.0527 9.89575Z" fill="#39CC46"/>
<path id="Vector_3" d="M28.1033 2.72167C27.061 2.60413 25.4221 2.60419 23.9596 2.60425C22.4971 2.60419 20.8581 2.60413 19.8157 2.72167C18.692 2.84838 17.6311 3.12856 16.6664 3.81529C15.7078 4.49771 15.1154 5.38869 14.6482 6.38065C14.2101 7.31073 13.8124 8.48936 13.3479 9.86588L13.3016 10.0031C14.5556 9.93073 15.9581 9.90721 17.5216 9.89958C17.8109 9.07275 18.0777 8.35394 18.2769 7.93094C18.5948 7.25606 18.8344 7.00083 19.0475 6.84915C19.2545 6.70177 19.5578 6.5649 20.2833 6.48308C21.0643 6.39502 22.3558 6.39194 23.9596 6.39194C25.5635 6.39194 26.855 6.39502 27.6358 6.48308C28.3614 6.5649 28.6646 6.70177 28.8716 6.84915C29.0848 7.00083 29.3243 7.25606 29.6423 7.93094C29.8414 8.35392 30.1081 9.07267 30.3975 9.89944C31.9604 9.90688 33.3627 9.92992 34.6171 10.0014L34.5712 9.8659C34.1068 8.48938 33.7089 7.31073 33.271 6.38065C32.8037 5.38869 32.2114 4.49771 31.2527 3.81529C30.2879 3.12856 29.2273 2.84838 28.1033 2.72167Z" fill="#39CC46"/>
</g>
</svg>
