<svg width="161" height="168" viewBox="0 0 161 168" fill="none" xmlns="http://www.w3.org/2000/svg">
<g id="Davomiyligi - icon" clip-path="url(#clip0_91_41)">
<path id="Vector" opacity="0.5" d="M49.7407 27.2672C48.7639 23.6218 45.0169 21.4585 41.3716 22.4353C37.7263 23.412 35.563 27.159 36.5397 30.8044L37.3335 33.767C39.6305 32.2981 42.1528 31.0129 44.8792 29.8404C46.452 29.164 48.1267 28.5115 49.9029 27.8726L49.7407 27.2672Z" fill="#F5F6F9"/>
<path id="Vector_2" opacity="0.5" d="M129.74 9.00664C127.017 8.88296 124.19 9.03109 121.243 9.3789C119.542 9.57963 117.766 9.85178 115.908 10.1867L115.746 9.58121C114.769 5.93589 116.932 2.18891 120.578 1.21212C124.223 0.23532 127.97 2.39869 128.947 6.04401L129.74 9.00664Z" fill="#F5F6F9"/>
<path id="Vector_3" fill-rule="evenodd" clip-rule="evenodd" d="M89.5338 16.6047L75.9526 20.2437C63.0931 23.6892 52.7201 26.4684 44.8792 29.8404C36.6962 33.3594 30.352 37.8941 26.4194 45.3629C22.5348 52.7403 22.1655 60.7797 23.4506 70.0278C24.7019 79.0326 27.6823 90.1555 31.4315 104.147L32.585 108.452C36.3339 122.444 39.3143 133.567 42.7329 141.991C46.2442 150.643 50.5837 157.42 57.6365 161.867C64.7766 166.369 72.5383 167.124 81.3844 166.08C89.861 165.08 100.234 162.3 113.093 158.854L126.674 155.215C139.534 151.769 149.907 148.991 157.748 145.618C165.931 142.099 172.275 137.565 176.208 130.096C180.092 122.718 180.461 114.679 179.176 105.431C177.925 96.4264 174.944 85.3033 171.195 71.3115L170.042 67.0067C166.293 53.015 163.312 41.8921 159.894 33.468C156.383 24.8163 152.043 18.0387 144.99 13.5918C137.85 9.09007 130.089 8.33493 121.243 9.3789C112.766 10.3791 102.393 13.1587 89.5338 16.6047ZM45.6053 77.896C42.5782 78.7071 41.0647 79.1126 40.3556 80.3225C39.6467 81.5323 40.0276 83.0318 40.7897 86.0308C41.9227 90.4897 43.2535 95.4636 44.7551 101.067L45.6634 104.457C49.5628 119.01 52.3347 129.307 55.3965 136.851C58.4032 144.26 61.3197 148.033 64.9254 150.306C68.4441 152.525 72.6626 153.348 79.7827 152.507C87.1585 151.637 96.5731 149.132 110.076 145.514L122.617 142.153C136.12 138.535 145.526 135.997 152.349 133.063C158.935 130.231 162.177 127.409 164.115 123.728C166.101 119.957 166.74 115.231 165.639 107.312C164.519 99.2473 161.771 88.9441 157.872 74.3913L156.963 71.0013C155.462 65.3975 154.127 60.4245 152.879 55.9965C152.04 53.0183 151.62 51.5292 150.401 50.8359C149.182 50.1427 147.669 50.5482 144.642 51.3593L45.6053 77.896Z" fill="#F5F6F9"/>
<path id="Vector_4" opacity="0.5" fill-rule="evenodd" clip-rule="evenodd" d="M67.5451 100.315C66.3241 95.7578 69.0283 91.0744 73.585 89.8534L73.6442 89.8375C78.2009 88.6166 82.8845 91.3204 84.1055 95.8774C85.3266 100.434 82.6224 105.118 78.0657 106.339L78.0065 106.355C73.4497 107.576 68.7661 104.872 67.5451 100.315ZM93.9174 93.2483C92.6963 88.6914 95.4009 84.0078 99.9572 82.787L100.017 82.7711C104.573 81.5502 109.257 84.2539 110.478 88.8109C111.699 93.3679 108.994 98.0514 104.438 99.2723L104.379 99.2882C99.8224 100.509 95.1384 97.8053 93.9174 93.2483ZM120.29 86.1819C119.069 81.6249 121.773 76.9414 126.33 75.7205L126.389 75.7046C130.946 74.4836 135.629 77.1875 136.85 81.7445C138.071 86.3015 135.367 90.9848 130.81 92.2059L130.751 92.2218C126.195 93.4426 121.511 90.7389 120.29 86.1819ZM74.6195 126.717C73.3984 122.16 76.1026 117.476 80.6594 116.255L80.7186 116.24C85.2753 115.019 89.9589 117.722 91.1799 122.279C92.401 126.836 89.6968 131.52 85.1401 132.741L85.0808 132.757C80.5241 133.978 75.8405 131.274 74.6195 126.717ZM100.992 119.65C99.7707 115.093 102.475 110.41 107.032 109.189L107.091 109.173C111.647 107.952 116.331 110.656 117.552 115.213C118.773 119.77 116.069 124.453 111.513 125.674L111.453 125.69C106.897 126.911 102.213 124.207 100.992 119.65Z" fill="#F5F6F9"/>
</g>
<defs>
<clipPath id="clip0_91_41">
<rect width="164" height="164" fill="white" transform="translate(0 26.4464) rotate(-15)"/>
</clipPath>
</defs>
</svg>
