<svg width="50" height="50" viewBox="0 0 50 50" fill="none" xmlns="http://www.w3.org/2000/svg">
<g id="diploma - icon">
<path id="Vector" opacity="0.4" d="M29.2843 2.60425C33.113 2.60423 36.1455 2.60419 38.5188 2.92329C40.9613 3.25166 42.9384 3.94358 44.4976 5.50266C46.0565 7.06177 46.7484 9.03875 47.077 11.4813C47.3959 13.8546 47.3959 16.8873 47.3959 20.7159V20.9511C47.3959 24.7797 47.3959 27.8122 47.077 30.1855C46.7484 32.628 46.0565 34.6051 44.4976 36.1642C42.9926 37.669 41.0976 38.3665 38.7686 38.7084L38.1747 38.7226C37.928 38.7286 37.8047 38.7315 37.7022 38.6711C37.5995 38.6105 37.5443 38.5045 37.4336 38.2926C36.7765 37.0338 36.2601 35.6874 35.864 34.3867C35.3236 32.8351 34.9934 30.9547 34.8959 30.2084C34.8959 24.743 30.4655 20.3126 25.0001 20.3126C19.5348 20.3126 15.1042 24.743 15.1042 30.2084C15.1042 33.7545 15.807 37.129 16.1584 38.3732C16.1767 38.4405 16.1858 38.474 16.1894 38.498C16.2246 38.7322 16.0651 38.9432 15.8301 38.9732C15.8062 38.9763 15.773 38.9767 15.7068 38.9774L14.5596 38.9901L14.5186 38.9884C10.5989 38.8257 7.6461 38.3076 5.50267 36.1642C3.94358 34.6051 3.25166 32.628 2.92329 30.1855C2.60419 27.8122 2.60423 24.7797 2.60425 20.9509V20.7158C2.60423 16.8872 2.60419 13.8546 2.92329 11.4813C3.25166 9.03875 3.94358 7.06177 5.50267 5.50266C7.06177 3.94358 9.03875 3.25166 11.4813 2.92329C13.8546 2.60419 16.8872 2.60423 20.7159 2.60425H29.2843Z" fill="#39CC46"/>
<path id="Vector_2" fill-rule="evenodd" clip-rule="evenodd" d="M36.9791 12.5C36.9791 13.3629 36.2795 14.0625 35.4166 14.0625H14.5833C13.7203 14.0625 13.0208 13.3629 13.0208 12.5C13.0208 11.6371 13.7203 10.9375 14.5833 10.9375H35.4166C36.2795 10.9375 36.9791 11.6371 36.9791 12.5Z" fill="#39CC46"/>
<path id="Vector_3" fill-rule="evenodd" clip-rule="evenodd" d="M25.0001 23.4375C21.2607 23.4375 18.2292 26.469 18.2292 30.2083C18.2292 33.9477 21.2607 36.9792 25.0001 36.9792C28.7395 36.9792 31.7709 33.9477 31.7709 30.2083C31.7709 26.469 28.7395 23.4375 25.0001 23.4375ZM36.6084 44.7598C37.0953 44.186 37.104 43.3469 36.6292 42.7631C35.0057 40.7663 33.8959 38.3596 33.1492 36.1492C33.0261 35.7848 32.9647 35.6025 32.8426 35.5813C32.7205 35.5602 32.598 35.7148 32.353 36.024C30.6359 38.1917 27.9805 39.5821 25.0003 39.5821C23.2538 39.5821 21.6188 39.1046 20.2188 38.2727C19.7569 37.9983 19.526 37.8613 19.4134 37.9513C19.3008 38.0413 19.3798 38.284 19.5378 38.7692C20.7217 42.4042 22.4374 44.8777 23.4967 46.4052C23.5724 46.5144 23.6449 46.6188 23.7134 46.7183C24.027 47.1735 24.5578 47.4294 25.1092 47.3908C25.6607 47.3523 26.1507 47.0254 26.3978 46.5308L28.5872 42.1523C28.6797 41.9675 28.7259 41.875 28.8117 41.849C28.8976 41.8229 28.9872 41.8742 29.1665 41.9769L34.6417 45.1054C35.2951 45.4788 36.1215 45.3335 36.6084 44.7598Z" fill="#39CC46"/>
</g>
</svg>
