<svg width="30" height="30" viewBox="0 0 30 30" fill="none" xmlns="http://www.w3.org/2000/svg">
<g id="instagram - icon">
<path id="Vector" d="M16.2851 2.50098C17.6919 2.5033 18.4047 2.51075 19.0207 2.52909L19.2634 2.53701C19.5436 2.54698 19.8201 2.55948 20.1535 2.5751C21.4836 2.63656 22.391 2.84698 23.1879 3.15635C24.0117 3.47406 24.7076 3.90323 25.4024 4.59803C26.0961 5.29281 26.5254 5.99073 26.8441 6.8126C27.1524 7.60844 27.3629 8.51678 27.4254 9.84698C27.4402 10.1803 27.4522 10.4568 27.4621 10.7371L27.47 10.9797C27.4882 11.5957 27.4966 12.3086 27.4992 13.7154L27.5002 14.6474C27.5004 14.7613 27.5004 14.8788 27.5004 15.0001L27.5002 15.3527L27.4995 16.2848C27.4971 17.6916 27.4897 18.4046 27.4714 19.0204L27.4634 19.2631C27.4535 19.5434 27.441 19.8199 27.4254 20.1532C27.3639 21.4834 27.1524 22.3907 26.8441 23.1876C26.5264 24.0116 26.0961 24.7074 25.4024 25.4022C24.7076 26.0959 24.0086 26.5251 23.1879 26.8438C22.391 27.1522 21.4836 27.3626 20.1535 27.4251C19.8201 27.4399 19.5436 27.4521 19.2634 27.4618L19.0207 27.4697C18.4047 27.4881 17.6919 27.4963 16.2851 27.4991L15.353 27.5001C15.2391 27.5001 15.1216 27.5001 15.0004 27.5001H14.6477L13.7156 27.4992C12.3089 27.4969 11.5959 27.4894 10.98 27.4711L10.7374 27.4632C10.457 27.4532 10.1805 27.4407 9.84722 27.4251C8.51701 27.3637 7.61076 27.1522 6.81285 26.8438C5.98992 26.5262 5.29305 26.0959 4.59826 25.4022C3.90347 24.7074 3.47535 24.0084 3.1566 23.1876C2.84722 22.3907 2.63785 21.4834 2.57535 20.1532C2.5605 19.8199 2.54838 19.5434 2.53857 19.2631L2.53071 19.0204C2.51242 18.4046 2.50408 17.6916 2.50138 16.2848L2.50122 13.7154C2.50355 12.3086 2.51098 11.5957 2.52932 10.9797L2.53726 10.7371C2.54722 10.4568 2.55972 10.1803 2.57535 9.84698C2.6368 8.51573 2.84722 7.60948 3.1566 6.8126C3.4743 5.98969 3.90347 5.29281 4.59826 4.59803C5.29305 3.90323 5.99097 3.4751 6.81285 3.15635C7.60972 2.84698 8.51597 2.6376 9.84722 2.5751C10.1805 2.56026 10.457 2.54815 10.7374 2.53834L10.98 2.53048C11.5959 2.51218 12.3089 2.50384 13.7156 2.50114L16.2851 2.50098ZM15.0004 8.7501C11.5467 8.7501 8.75035 11.5495 8.75035 15.0001C8.75035 18.4537 11.5498 21.2501 15.0004 21.2501C18.454 21.2501 21.2504 18.4507 21.2504 15.0001C21.2504 11.5465 18.4509 8.7501 15.0004 8.7501ZM15.0004 11.2501C17.0715 11.2501 18.7504 12.9284 18.7504 15.0001C18.7504 17.0712 17.072 18.7501 15.0004 18.7501C12.9292 18.7501 11.2503 17.0718 11.2503 15.0001C11.2503 12.9289 12.9286 11.2501 15.0004 11.2501ZM21.5629 6.8751C20.7012 6.8751 20.0004 7.57499 20.0004 8.43654C20.0004 9.2981 20.7002 9.99906 21.5629 9.99906C22.4244 9.99906 23.1254 9.29919 23.1254 8.43654C23.1254 7.57499 22.4232 6.87403 21.5629 6.8751Z" fill="#ABABB5"/>
</g>
</svg>
