<svg width="50" height="50" viewBox="0 0 50 50" fill="none" xmlns="http://www.w3.org/2000/svg">
<g id="mentor - icon">
<path id="Vector" opacity="0.4" fill-rule="evenodd" clip-rule="evenodd" d="M39.3433 6.77038C38.4037 6.64488 37.1287 6.64059 35.1562 6.64059H6.71875C5.59692 6.64059 4.6875 5.73701 4.6875 4.62236C4.6875 3.50774 5.59692 2.60413 6.71875 2.60413H35.29C37.0906 2.60403 38.6421 2.60394 39.8846 2.76992C41.216 2.9478 42.4925 3.3489 43.5277 4.37753C44.5629 5.40613 44.9667 6.67428 45.1456 7.99728C45.3127 9.23176 45.3125 10.7733 45.3125 12.5625V24.9375C45.3125 26.7266 45.3127 28.2681 45.1456 29.5027C44.9667 30.8256 44.5629 32.0937 43.5277 33.1225C42.4925 34.151 41.216 34.552 39.8846 34.73C38.6421 34.896 37.0906 34.8958 35.29 34.8958H20.9375C19.8157 34.8958 18.9062 33.9923 18.9062 32.8775C18.9062 31.7629 19.8157 30.8593 20.9375 30.8593H35.1562C37.1287 30.8593 38.4037 30.855 39.3433 30.7295C40.2244 30.6118 40.5004 30.4218 40.655 30.2683C40.8096 30.1145 41.0008 29.8402 41.1194 28.9648C41.2456 28.0314 41.25 26.7645 41.25 24.8045V12.6953C41.25 10.7354 41.2456 9.46855 41.1194 8.53511C41.0008 7.65973 40.8096 7.38536 40.655 7.23171C40.5004 7.07809 40.2244 6.88807 39.3433 6.77038Z" fill="#39CC46"/>
<path id="Vector_2" opacity="0.4" fill-rule="evenodd" clip-rule="evenodd" d="M20.8333 13.5417C20.8333 12.3911 21.766 11.4584 22.9166 11.4584H35.4166C36.5672 11.4584 37.4999 12.3911 37.4999 13.5417C37.4999 14.6923 36.5672 15.625 35.4166 15.625H22.9166C21.766 15.625 20.8333 14.6923 20.8333 13.5417Z" fill="#39CC46"/>
<path id="Vector_3" d="M26.6494 22.9166C27.7519 22.9166 28.6458 23.8135 28.6458 24.92C28.6458 26.0262 27.7519 26.9231 26.6494 26.9231H16.6667L16.6666 45.3931C16.6666 46.4996 15.7728 47.3964 14.6701 47.3964C13.5675 47.3964 12.6736 46.4996 12.6736 45.3931V37.3804H8.68054V45.3931C8.68054 46.4996 7.78667 47.3964 6.68402 47.3964C5.58137 47.3964 4.6875 46.4996 4.6875 45.3931L4.68752 28.8173C4.68735 27.9679 4.68719 27.1423 4.77844 26.4612C4.88129 25.6937 5.1319 24.8177 5.85706 24.0902C6.58223 23.3625 7.45527 23.111 8.22033 23.0079C8.899 22.9162 9.72181 22.9164 10.5685 22.9166H26.6494Z" fill="#39CC46"/>
<path id="Vector_4" d="M4.6875 15.1042C4.6875 11.94 7.25254 9.375 10.4167 9.375C13.5808 9.375 16.1458 11.94 16.1458 15.1042C16.1458 18.2683 13.5808 20.8333 10.4167 20.8333C7.25254 20.8333 4.6875 18.2683 4.6875 15.1042Z" fill="#39CC46"/>
</g>
</svg>
