<svg width="161" height="168" viewBox="0 0 161 168" fill="none" xmlns="http://www.w3.org/2000/svg">
<g id="O&#39;qish turi - icon">
<path id="Vector" fill-rule="evenodd" clip-rule="evenodd" d="M52.1592 161.032C51.1824 157.387 53.3458 153.64 56.9911 152.663L175.8 120.829C179.446 119.852 183.192 122.015 184.169 125.661C185.146 129.306 182.983 133.053 179.337 134.03L60.5283 165.864C56.883 166.841 53.136 164.678 52.1592 161.032Z" fill="#F5F6F9"/>
<path id="Vector_2" fill-rule="evenodd" clip-rule="evenodd" d="M80.6633 91.4939L124.715 79.6903C129.682 78.3595 133.772 77.2635 137.121 76.7098C140.577 76.1382 143.901 76.0173 147.131 77.1717C150.603 78.4131 153.636 80.6424 155.848 83.5905C157.91 86.3388 158.759 89.5501 159.209 93.0065C159.643 96.3517 159.768 100.556 159.919 105.648L159.933 106.131C160.084 111.189 160.205 115.298 160.027 118.671C159.841 122.17 159.322 125.265 157.976 128.23C156.434 131.627 154.169 134.649 151.341 137.089C148.875 139.216 146.048 140.599 142.732 141.783C139.531 142.927 135.533 143.998 130.602 145.32L108.379 151.274C103.449 152.595 99.4502 153.667 96.1062 154.277C92.6423 154.909 89.5026 155.125 86.3039 154.516C82.6346 153.817 79.162 152.332 76.1283 150.161C73.4803 148.266 71.4828 145.845 69.573 142.908C67.7315 140.076 65.7828 136.457 63.384 132.002L63.1549 131.576C60.7391 127.09 58.7454 123.387 57.4494 120.273C56.1102 117.055 55.2397 113.849 55.6516 110.438C56.0932 106.779 57.6048 103.332 59.9914 100.521C62.2108 97.9062 65.1499 96.349 68.4287 95.116C71.6065 93.9207 75.6969 92.8246 80.6633 91.4939ZM101.394 107.162C98.6604 107.895 97.0379 110.705 97.7704 113.439C98.503 116.173 101.313 117.795 104.047 117.063L117.248 113.526C119.982 112.793 121.605 109.983 120.872 107.249C120.14 104.515 117.329 102.892 114.595 103.625L101.394 107.162Z" fill="#F5F6F9"/>
<path id="Vector_3" opacity="0.5" fill-rule="evenodd" clip-rule="evenodd" d="M123.552 74.1642C109.172 61.8839 85.2676 68.9457 78.8824 86.1949C77.8999 88.8493 74.9515 90.2046 72.297 89.2222C69.6427 88.2398 68.2874 85.2915 69.2699 82.6371C77.9741 59.1219 110.072 49.1733 130.209 66.3701C132.361 68.208 132.616 71.4434 130.777 73.5957C128.939 75.7477 125.704 76.0027 123.552 74.1642Z" fill="#F5F6F9"/>
<path id="Vector_4" opacity="0.5" fill-rule="evenodd" clip-rule="evenodd" d="M87.656 29.4879C83.099 30.709 80.3952 35.3926 81.6161 39.9493C82.8371 44.506 87.5205 47.2102 92.0775 45.9892C96.6338 44.7683 99.3383 40.0845 98.1174 35.5278C96.8964 30.9711 92.2123 28.2671 87.656 29.4879ZM71.7153 42.6022C69.0292 32.5775 74.9783 22.2734 85.0031 19.5872C95.0279 16.9011 105.332 22.8502 108.018 32.8749C110.704 42.8996 104.755 53.2038 94.7304 55.8899C84.7056 58.5761 74.4014 52.6269 71.7153 42.6022Z" fill="#F5F6F9"/>
</g>
</svg>
