<svg width="50" height="50" viewBox="0 0 50 50" fill="none" xmlns="http://www.w3.org/2000/svg">
<g id="online user - icon">
<path id="Vector" fill-rule="evenodd" clip-rule="evenodd" d="M4.74048 43.75C4.74048 42.5993 5.67323 41.6666 6.82381 41.6666H44.3238C45.4745 41.6666 46.4072 42.5993 46.4072 43.75C46.4072 44.9006 45.4745 45.8333 44.3238 45.8333H6.82381C5.67323 45.8333 4.74048 44.9006 4.74048 43.75Z" fill="#39CC46"/>
<path id="Vector_2" fill-rule="evenodd" clip-rule="evenodd" d="M18.6218 25.5209H32.5259C34.0936 25.5209 35.3847 25.5209 36.4147 25.6221C37.4776 25.7265 38.4659 25.9532 39.3259 26.548C40.2505 27.1875 40.9678 28.0834 41.3865 29.1261C41.777 30.0982 41.7736 31.1109 41.6332 32.1642C41.4972 33.1836 41.2022 34.4315 40.8449 35.9432L40.8109 36.0863C40.4561 37.5877 40.1678 38.8073 39.849 39.7867C39.5182 40.8023 39.1211 41.673 38.4907 42.4398C37.7686 43.3186 36.8632 44.0298 35.8378 44.5252C34.9438 44.9571 34.0022 45.1413 32.9322 45.2284C31.8992 45.3125 30.6372 45.3125 29.0809 45.3125H22.0667C20.5104 45.3125 19.2484 45.3125 18.2155 45.2284C17.1455 45.1413 16.2038 44.9571 15.3099 44.5252C14.2845 44.0298 13.379 43.3186 12.657 42.4398C12.0266 41.673 11.6295 40.8023 11.2988 39.7867C10.98 38.8073 10.6917 37.5878 10.3368 36.0865L10.3029 35.9432C9.94552 34.4313 9.65054 33.1836 9.51462 32.1642C9.37418 31.1109 9.37079 30.0982 9.76125 29.1261C10.18 28.0834 10.8972 27.1875 11.8218 26.548C12.6817 25.9532 13.6701 25.7265 14.733 25.6221C15.7631 25.5209 17.0542 25.5209 18.6218 25.5209ZM23.4905 31.7709C22.6276 31.7709 21.928 32.4705 21.928 33.3334C21.928 34.1963 22.6276 34.8959 23.4905 34.8959H27.6572C28.5201 34.8959 29.2197 34.1963 29.2197 33.3334C29.2197 32.4705 28.5201 31.7709 27.6572 31.7709H23.4905Z" fill="#39CC46"/>
<path id="Vector_3" opacity="0.5" fill-rule="evenodd" clip-rule="evenodd" d="M32.6193 23.8016C29.3537 19.0505 21.7568 19.2439 18.5154 23.8197C18.0166 24.5239 17.0414 24.6904 16.3372 24.1916C15.633 23.6929 15.4665 22.7177 15.9653 22.0135C20.3842 15.7754 30.6218 15.3784 35.1948 22.0316C35.6835 22.7427 35.5033 23.7156 34.792 24.2043C34.081 24.6931 33.1081 24.5129 32.6193 23.8016Z" fill="#39CC46"/>
<path id="Vector_4" opacity="0.5" fill-rule="evenodd" clip-rule="evenodd" d="M25.5737 7.8125C24.1353 7.8125 22.9695 8.97842 22.9695 10.4167C22.9695 11.8549 24.1353 13.0208 25.5737 13.0208C27.0118 13.0208 28.1778 11.8549 28.1778 10.4167C28.1778 8.97842 27.0118 7.8125 25.5737 7.8125ZM19.8445 10.4167C19.8445 7.25254 22.4095 4.6875 25.5737 4.6875C28.7378 4.6875 31.3028 7.25254 31.3028 10.4167C31.3028 13.5808 28.7378 16.1458 25.5737 16.1458C22.4095 16.1458 19.8445 13.5808 19.8445 10.4167Z" fill="#39CC46"/>
</g>
</svg>
