<svg width="50" height="50" viewBox="0 0 50 50" fill="none" xmlns="http://www.w3.org/2000/svg">
<g id="online cabinet - icon">
<path id="Vector" fill-rule="evenodd" clip-rule="evenodd" d="M20.7151 2.08313H29.2847C32.6003 2.0831 35.2533 2.08307 37.3732 2.30653C39.5555 2.53657 41.4118 3.02199 43.0305 4.15534C44.1253 4.92201 45.0776 5.87432 45.8443 6.96924C46.9778 8.58784 47.4632 10.4441 47.6932 12.6264C47.9166 14.7464 47.9166 17.3993 47.9166 20.7149V20.9513C47.9166 24.2669 47.9166 26.9198 47.6932 29.0398C47.4632 31.2221 46.9778 33.0784 45.8443 34.6969C45.0776 35.7919 44.1253 36.7442 43.0305 37.5109C41.4118 38.6442 39.5555 39.1296 37.3732 39.3596C35.2533 39.5832 32.6003 39.5832 29.2847 39.5832H20.7151C17.3995 39.5832 14.7465 39.5832 12.6265 39.3596C10.4443 39.1296 8.58798 38.6442 6.96936 37.5109C5.87446 36.7442 4.92213 35.7919 4.15546 34.6969C3.02211 33.0784 2.53669 31.2221 2.30667 29.0398C2.0832 26.9198 2.08322 24.2669 2.08325 20.9513V20.715C2.08322 17.3994 2.0832 14.7464 2.30667 12.6264C2.53669 10.4441 3.02211 8.58786 4.15546 6.96924C4.92213 5.87432 5.87446 4.92201 6.96936 4.15534C8.58798 3.02199 10.4443 2.53657 12.6265 2.30653C14.7465 2.08307 17.3995 2.0831 20.7151 2.08313ZM13.0633 6.45026C11.2243 6.64409 10.162 7.00641 9.35925 7.56849C8.6625 8.05636 8.05648 8.66238 7.56861 9.35913C7.00652 10.1619 6.64421 11.2242 6.45038 13.0632C6.25263 14.9392 6.24992 17.3722 6.24992 20.8331C6.24992 24.294 6.25263 26.7271 6.45038 28.6032C6.64421 30.4421 7.00652 31.5044 7.56861 32.3071C8.05648 33.0038 8.6625 33.6098 9.35925 34.0978C10.162 34.6598 11.2243 35.0221 13.0633 35.2161C14.9393 35.4138 17.3723 35.4165 20.8333 35.4165H29.1666C32.6274 35.4165 35.0605 35.4138 36.9366 35.2161C38.7755 35.0221 39.8378 34.6598 40.6405 34.0978C41.3374 33.6098 41.9435 33.0038 42.4312 32.3071C42.9933 31.5044 43.3555 30.4421 43.5495 28.6032C43.7472 26.7271 43.7499 24.294 43.7499 20.8331C43.7499 17.3722 43.7472 14.9392 43.5495 13.0632C43.3555 11.2242 42.9933 10.1619 42.4312 9.35913C41.9435 8.66238 41.3374 8.05636 40.6405 7.56849C39.8378 7.00641 38.7755 6.64409 36.9366 6.45026C35.0605 6.25251 32.6274 6.2498 29.1666 6.2498H20.8333C17.3723 6.2498 14.9393 6.25251 13.0633 6.45026Z" fill="#39CC46"/>
<path id="Vector_2" opacity="0.4" d="M30.8971 35.9373H19.1027L19.8986 38.0504C20.3321 39.2014 20.4136 40.4802 20.1981 41.6454C20.0575 42.4058 19.9872 42.786 19.408 43.2679C18.8289 43.7498 18.2597 43.7498 17.1211 43.7498H14.5833C13.4327 43.7498 12.5 44.6825 12.5 45.8331C12.5 46.9837 13.4327 47.9164 14.5833 47.9164H35.4167C36.5673 47.9164 37.5 46.9837 37.5 45.8331C37.5 44.6825 36.5673 43.7498 35.4167 43.7498H32.8787C31.7402 43.7498 31.171 43.7498 30.5919 43.2679C30.0127 42.786 29.9425 42.4058 29.8019 41.6454C29.5863 40.4802 29.6677 39.2014 30.1012 38.0504L30.8971 35.9373Z" fill="#39CC46"/>
<g id="Group" opacity="0.4">
<path id="Vector_3" d="M29.6875 15.046C29.6875 17.6029 27.5887 19.6756 25 19.6756C22.4112 19.6756 20.3125 17.6029 20.3125 15.046C20.3125 12.4891 22.4112 10.4164 25 10.4164C27.5887 10.4164 29.6875 12.4891 29.6875 15.046Z" fill="#39CC46"/>
<path id="Vector_4" d="M19.3516 23.7052C17.8779 24.6802 14.0139 26.6712 16.3674 29.1625C17.517 30.3793 18.7974 31.2497 20.4071 31.2497H29.5929C31.2027 31.2497 32.4829 30.3793 33.6327 29.1625C35.986 26.6712 32.1221 24.6802 30.6483 23.7052C27.1925 21.4189 22.8075 21.4189 19.3516 23.7052Z" fill="#39CC46"/>
</g>
</g>
</svg>
