<svg width="30" height="30" viewBox="0 0 30 30" fill="none" xmlns="http://www.w3.org/2000/svg">
<g id="play-store - icon">
<path id="Vector" d="M4.51215 2.26758L17.2412 15.0001L4.51352 27.7331C4.2722 27.6311 4.06082 27.4526 3.91943 27.2085C3.80925 27.0181 3.75122 26.8021 3.75122 26.5821V3.41829C3.75122 2.90149 4.06485 2.45794 4.51215 2.26758ZM18.125 15.8839L21.0025 18.7614L7.33122 26.6776L18.125 15.8839ZM22.1237 11.8863L25.6326 13.9185C26.2301 14.2644 26.4341 15.0291 26.0881 15.6265C25.9787 15.8155 25.8217 15.9726 25.6326 16.082L22.1225 18.1139L19.0087 15.0001L22.1237 11.8863ZM7.33122 3.32258L21.0037 11.2376L18.125 14.1164L7.33122 3.32258Z" fill="#39CC46"/>
</g>
</svg>
