<svg width="161" height="168" viewBox="0 0 161 168" fill="none" xmlns="http://www.w3.org/2000/svg">
<g id="Boshlanish - icon" clip-path="url(#clip0_91_94)">
<path id="Vector" d="M63.803 106.969C65.1408 107.136 68.9989 107.614 70.9923 107.994C74.8769 108.733 80.1856 110.051 84.2731 112.411C88.3608 114.772 92.1572 118.71 94.7397 121.704C96.0579 123.233 98.3941 126.325 99.2194 127.417L99.2622 127.474C100.389 129.103 100.476 131.236 99.4857 132.952C95.7439 139.433 83.9346 151.271 65.1356 150.143C63.5253 150.046 62.0545 149.197 61.1658 147.851C50.7889 132.134 55.137 115.989 58.8788 109.508C59.8693 107.792 61.7599 106.801 63.7345 106.962L63.754 106.963L63.803 106.969Z" fill="#F5F6F9"/>
<path id="Vector_2" opacity="0.5" d="M58.7665 91.6436C76.6843 15.3445 121.972 0.497233 144.681 4.12063C145.928 4.31954 147.057 4.9717 147.853 5.95171C162.345 23.8065 172.131 70.4509 115.013 124.117C113.813 125.245 112.146 125.727 110.53 125.414C108.913 125.101 107.546 124.031 106.854 122.538C105.602 119.837 99.8805 111.471 88.5824 104.948C77.2847 98.4259 67.1793 97.6537 64.2144 97.9197C62.5749 98.0668 60.9645 97.4181 59.8855 96.1749C58.8065 94.9317 58.3902 93.2463 58.7665 91.6436Z" fill="#F5F6F9"/>
<path id="Vector_3" d="M136.25 46.5437C133.808 37.4304 124.44 32.0221 115.327 34.464C106.214 36.9059 100.806 46.2734 103.247 55.3867C105.689 64.5002 115.057 69.9086 124.17 67.4667C133.284 65.0248 138.692 55.6572 136.25 46.5437Z" fill="#F5F6F9"/>
<path id="Vector_4" d="M126.773 124.582C128.806 125.782 130.424 127.253 131.808 128.89C134.645 132.25 137.039 137.379 139.272 142.167C140.011 143.746 141.503 144.842 143.231 145.074C144.959 145.307 146.687 144.644 147.818 143.316L147.892 143.216C148.617 142.239 150.549 139.634 151.486 138.105C153.417 134.956 155.748 130.44 157.214 125.089C158.683 119.724 159.321 113.377 157.671 106.709C156.586 102.325 154.549 97.9565 151.313 93.7553C145.216 103.733 137.165 114.066 126.773 124.582Z" fill="#F5F6F9"/>
<path id="Vector_5" d="M66.9108 45.0243C61.6543 44.3225 56.8519 44.7431 52.5127 45.9956C45.9136 47.9004 40.735 51.6259 36.824 55.5808C32.9225 59.5263 30.1776 63.803 28.4156 67.0489C27.5286 68.6829 26.3217 71.1895 25.7366 72.8323C25.1515 74.4751 25.4419 76.3026 26.5074 77.6832C27.5729 79.0637 29.2673 79.8076 31.0047 79.6578C36.2674 79.1984 41.9065 78.7064 46.2346 79.484C48.3445 79.8631 50.4282 80.5297 52.4845 81.6905C56.3956 67.4324 61.3183 55.2939 66.9108 45.0243Z" fill="#F5F6F9"/>
</g>
<defs>
<clipPath id="clip0_91_94">
<rect width="164" height="164" fill="white" transform="translate(0 26.4464) rotate(-15)"/>
</clipPath>
</defs>
</svg>
