<svg width="30" height="30" viewBox="0 0 30 30" fill="none" xmlns="http://www.w3.org/2000/svg">
<g id="telegram - icon">
<path id="Vector" d="M27.5 15C27.5 21.9035 21.9035 27.5 15 27.5C8.09644 27.5 2.5 21.9035 2.5 15C2.5 8.09644 8.09644 2.5 15 2.5C21.9035 2.5 27.5 8.09644 27.5 15ZM15.448 11.7281C14.2321 12.2338 11.8022 13.2805 8.15825 14.8681C7.56651 15.1034 7.25655 15.3336 7.22832 15.5586C7.18064 15.9391 7.65701 16.0889 8.30573 16.2929C8.39396 16.3206 8.4854 16.3494 8.57912 16.3799C9.21735 16.5872 10.0759 16.83 10.5222 16.8396C10.927 16.8484 11.3789 16.6815 11.8778 16.3389C15.2825 14.0406 17.04 12.879 17.1504 12.854C17.2282 12.8363 17.3361 12.8141 17.4091 12.879C17.4823 12.944 17.475 13.067 17.4674 13.1C17.4201 13.3012 15.5501 15.0398 14.5825 15.9394C14.2939 16.2076 14.0126 16.4816 13.7291 16.7549C13.1363 17.3264 12.6916 17.755 13.7537 18.455C14.8305 19.1646 15.9154 19.8728 16.9655 20.6214C17.4834 20.9906 17.9487 21.3224 18.5235 21.2695C18.8576 21.2388 19.2026 20.9246 19.3778 19.9879C19.7919 17.7741 20.6059 12.9776 20.794 11.001C20.8105 10.8279 20.7897 10.6063 20.7731 10.509C20.7565 10.4117 20.7216 10.273 20.5952 10.1704C20.4454 10.0489 20.2142 10.0233 20.1109 10.0251C19.6406 10.0334 18.9194 10.2842 15.448 11.7281Z" fill="#ABABB5"/>
</g>
</svg>
